<?xml version="1.0" encoding="UTF-8" standalone="no"?>
<svg width="12px" height="7px" viewBox="0 0 12 7" version="1.1" xmlns="http://www.w3.org/2000/svg" xmlns:xlink="http://www.w3.org/1999/xlink">
    <!-- Generator: Sketch 46.1 (44463) - http://www.bohemiancoding.com/sketch -->
    <title>Page 1 Copy 4</title>
    <desc>Created with Sketch.</desc>
    <defs></defs>
    <g id="Application-Desktop" stroke="none" stroke-width="1" fill="none" fill-rule="evenodd">
        <g id="09.Tra_Cuu_Thu_Tuc_Hanh_Chinh" transform="translate(-655.000000, -931.000000)" fill="#0080FE">
            <g id="Group-13" transform="translate(602.000000, 917.000000)">
                <path d="M64.4302885,19.9303977 C64.5024038,20.0014209 64.5384615,20.1079539 64.5384615,20.25 C64.5384615,20.4157205 64.4783669,20.5518461 64.3581731,20.6583807 C64.2379792,20.7649153 64.0937508,20.8181818 63.9254808,20.8181818 L53.6129808,20.8181818 C53.4447108,20.8181818 53.3004814,20.7649153 53.1802885,20.6583807 C53.0600956,20.5518461 53,20.4157205 53,20.25 C53,20.1316282 53.0360573,20.0369323 53.1081731,19.9659091 L53.1802885,19.859375 L58.0841346,14.3196023 C58.3004808,14.1065341 58.5288454,14 58.7692308,14 C59.0096162,14 59.2379808,14.1065341 59.4543269,14.3196023 L64.3581731,19.859375 L64.4302885,19.9303977 Z" id="Page-1-Copy-4" transform="translate(58.769231, 17.409091) scale(1, -1) translate(-58.769231, -17.409091) "></path>
            </g>
        </g>
    </g>
</svg>