<?xml version="1.0" encoding="UTF-8" standalone="no"?>
<svg width="143px" height="143px" viewBox="0 0 143 143" version="1.1" xmlns="http://www.w3.org/2000/svg" xmlns:xlink="http://www.w3.org/1999/xlink">
    <!-- Generator: Sketch 46.1 (44463) - http://www.bohemiancoding.com/sketch -->
    <title>calendar (3)</title>
    <desc>Created with Sketch.</desc>
    <defs>
        <filter x="-13.8%" y="-10.6%" width="127.6%" height="128.5%" filterUnits="objectBoundingBox" id="filter-1">
            <feOffset dx="0" dy="4" in="SourceAlpha" result="shadowOffsetOuter1"></feOffset>
            <feGaussianBlur stdDeviation="5" in="shadowOffsetOuter1" result="shadowBlurOuter1"></feGaussianBlur>
            <feColorMatrix values="0 0 0 0 0   0 0 0 0 0   0 0 0 0 0  0 0 0 0.123075181 0" type="matrix" in="shadowBlurOuter1" result="shadowMatrixOuter1"></feColorMatrix>
            <feMerge>
                <feMergeNode in="shadowMatrixOuter1"></feMergeNode>
                <feMergeNode in="SourceGraphic"></feMergeNode>
            </feMerge>
        </filter>
    </defs>
    <g id="Application-Desktop" stroke="none" stroke-width="1" fill="none" fill-rule="evenodd">
        <g id="01.-Trang_Chu_Ver2" transform="translate(-889.000000, -338.000000)" fill-rule="nonzero">
            <g id="calendar-(3)" filter="url(#filter-1)" transform="translate(899.000000, 344.000000)">
                <path d="M28.828125,123 C12.9005859,123 0,110.099414 0,94.171875 L0,28.828125 C0,12.9005859 12.9005859,0 28.828125,0 L94.171875,0 C110.099414,0 123,12.9005859 123,28.828125 L123,94.171875 C123,110.099414 110.099414,123 94.171875,123 L28.828125,123 Z" id="Shape" fill="#F4F5F9"></path>
                <rect id="Rectangle-path" fill="#FFFFFF" x="113" y="33" width="4" height="56"></rect>
                <path d="M24,94 C24,107.224 34.776,118 48,118 C61.224,118 72,107.224 72,94 L24,94 Z" id="Shape" fill="#D7DCEA"></path>
                <path d="M77.3726236,94 C77.3726236,99.5250784 75.7804183,104.673981 73,109 L118.627376,109 C121.38403,104.65047 123,99.5015674 123,94 L77.3726236,94 Z" id="Shape" fill="#FFFFFF"></path>
                <path d="M62.2207031,43.3840909 L56.9595703,43.3840909 L47.1820312,52.8102273 L50.6654297,56.3659091 L54.4851563,52.6193182 C55.9265625,51.1875 56.4070313,50.2568182 56.4070313,50.2568182 L56.5271484,50.2568182 C56.5271484,50.2568182 56.4791016,51.5215909 56.4791016,52.7863636 L56.4791016,79.0125 L47.4943359,79.0125 L47.4943359,84 L71.1814453,84 L71.1814453,79.0602273 L62.2207031,79.0602273 L62.2207031,43.3840909 Z M94.171875,0 L28.828125,0 C12.9005859,0 0,12.8147727 0,28.6363636 L123,28.6363636 C123,12.8147727 110.099414,0 94.171875,0 Z M97.8955078,43.3840909 L91.2890625,43.3840909 L72.8871094,69.5625 L72.8871094,73.2375 L92.1058594,73.2375 L92.1058594,84 L97.8955078,84 L97.8955078,73.2375 L104.261719,73.2375 L104.261719,68.2977273 L97.8955078,68.2977273 L97.8955078,43.3840909 Z M92.1539063,54.3136364 L92.1539063,68.2977273 L82.5925781,68.2977273 C80.7908203,68.2977273 79.1091797,68.4647727 79.1091797,68.4647727 L79.1091797,68.3454545 C79.1091797,68.3454545 80.2142578,67.2 81.2472656,65.7681818 L90.1599609,53.5738636 C91.1929688,52.1420455 92.25,50.1852273 92.25,50.1852273 L92.3701172,50.1852273 C92.3941406,50.1852273 92.1539063,52.4761364 92.1539063,54.3136364 Z" id="Shape" fill="#FF1E0A"></path>
                <g id="Group" transform="translate(45.000000, 3.000000)" fill="#A3001E">
                    <ellipse id="Oval" cx="52.4075472" cy="12" rx="11.4716981" ry="11.875"></ellipse>
                    <ellipse id="Oval" cx="11.5924528" cy="12" rx="11.4716981" ry="11.875"></ellipse>
                </g>
                <path d="M97.214246,10 L63.785754,10 C61.1535893,10 59,12.25 59,15 C59,17.75 61.1535893,20 63.785754,20 L97.214246,20 C99.8464107,20 102,17.75 102,15 C102,12.25 99.8464107,10 97.214246,10 Z" id="Shape" fill="#FFEA00"></path>
                <path d="M63.7942584,10 L56.784689,10 C54.15311,10 52,12.25 52,15 C52,17.75 54.15311,20 56.784689,20 L63.7942584,20 C61.1626794,20 59.0095694,17.75 59.0095694,15 C59.0095694,12.25 61.1626794,10 63.7942584,10 Z M63.7942584,15 C63.7942584,17.75 65.9473684,20 68.5789474,20 L97.215311,20 C99.84689,20 102,17.75 102,15 L63.7942584,15 Z" id="Shape" fill="#FFAC09"></path>
                <g id="Group" transform="translate(117.000000, 109.000000)" fill="#FFFFFF">
                    <path d="M0.125,2.04090909 C0.225,1.94090909 0.275,1.79090909 0.375,1.69090909 C0.275,1.84090909 0.175,1.94090909 0.125,2.04090909 L0.125,2.04090909 Z" id="Shape"></path>
                    <path d="M1.775,0.109090909 C1.6,0.309090909 1.425,0.509090909 1.25,0.690909091 C1.425,0.490909091 1.625,0.290909091 1.775,0.109090909 Z" id="Shape"></path>
                    <path d="M1.05,0.909090909 C0.85,1.10909091 0.65,1.30909091 0.45,1.50909091 C0.65,1.30909091 0.85,1.10909091 1.05,0.909090909 Z" id="Shape"></path>
                </g>
                <path d="M9.6,29 L14.4,29 L19.2,29 L24,29 C24,15.6841667 34.776,4.83333333 48,4.83333333 L48,0 L38.4,0 L28.8,0 C12.888,0 0,12.9775 0,29 L4.8,29 L9.6,29 Z" id="Shape" fill="#A3001E"></path>
                <path d="M119,109.715306 L72.6645711,109.715306 C75.5364024,105.255102 77.2015818,99.9316327 77.2015818,94.2244898 L72.3749747,94.2244898 C72.3749747,107.437245 61.5392415,118.204082 48.2419388,118.204082 C47.8316771,118.204082 47.4214155,118.204082 47.0111539,118.180102 C46.383695,118.156122 45.7803691,118.084184 45.1770432,118.012245 C44.9839789,117.988265 44.7667816,117.964286 44.5737173,117.940306 C44.1634557,117.868367 43.7773271,117.820408 43.3911985,117.72449 C43.1981343,117.676531 43.00507,117.652551 42.8120057,117.604592 C41.65362,117.340816 40.5193673,116.981122 39.4092476,116.54949 C39.0472521,116.405612 38.6852565,116.261735 38.323261,116.093878 C32.9898601,113.695918 28.6700466,109.403571 26.2567431,104.104082 C26.0878118,103.744388 25.9430136,103.384694 25.7982154,103.025 C25.4362198,102.113776 25.1224904,101.178571 24.88116,100.219388 C24.8328939,100.027551 24.7846279,99.8357143 24.7363618,99.6438776 C24.5915636,99.0683673 24.4950314,98.4688776 24.3984993,97.8933673 C24.3743663,97.7015306 24.3502332,97.4857143 24.3261002,97.2938776 C24.2537011,96.6943878 24.205435,96.094898 24.1571689,95.4714286 C24.1330359,95.0637755 24.1330359,94.6561224 24.1330359,94.2484694 L24.1330359,29 L19.3064287,29 L19.3064287,94.2244898 C19.3064287,94.4882653 19.3064287,94.7280612 19.3064287,94.9918367 C19.3064287,95.0637755 19.3064287,95.1357143 19.3064287,95.2076531 C19.3064287,95.3994898 19.3305618,95.5913265 19.3305618,95.7591837 C19.3305618,95.8311224 19.3305618,95.9030612 19.3546948,95.975 C19.3788278,96.4785714 19.4270939,96.9821429 19.47536,97.4857143 C19.47536,97.5576531 19.499493,97.6295918 19.499493,97.7015306 C19.523626,97.8933673 19.5477591,98.0852041 19.5718921,98.2530612 C19.5718921,98.325 19.5960251,98.3969388 19.5960251,98.4688776 C19.6684243,98.972449 19.7649564,99.4520408 19.8614885,99.9556122 C19.8856216,100.027551 19.8856216,100.07551 19.9097546,100.147449 C19.9580207,100.339286 19.9821537,100.531122 20.0304198,100.722959 C20.0545528,100.794898 20.0545528,100.842857 20.0786859,100.914796 C20.199351,101.394388 20.3200162,101.87398 20.4648144,102.353571 C20.4889475,102.401531 20.4889475,102.44949 20.5130805,102.497449 C20.5613466,102.689286 20.6337457,102.881122 20.7061448,103.072959 C20.7302778,103.120918 20.7302778,103.168878 20.7544109,103.216837 C20.9233421,103.696429 21.0922734,104.17602 21.2612046,104.631633 C21.2853377,104.679592 21.2853377,104.703571 21.3094707,104.751531 C21.3818698,104.943367 21.4784019,105.159184 21.5508011,105.35102 C21.5749341,105.39898 21.5749341,105.422959 21.5990671,105.470918 C21.7921314,105.95051 22.0093287,106.406122 22.2265261,106.861735 C22.2506591,106.885714 22.2506591,106.909694 22.2747921,106.933673 C22.3713243,107.14949 22.4919895,107.341327 22.5885216,107.557143 C22.6126546,107.581122 22.6126546,107.605102 22.6367877,107.629082 C22.878118,108.084694 23.1435814,108.540306 23.4090448,108.971939 L23.4331779,108.995918 C23.553843,109.211735 23.6986412,109.427551 23.8193064,109.619388 L23.8434395,109.643367 C24.2778341,110.314796 24.7122288,110.962245 25.1948895,111.585714 L25.1948895,111.585714 C26.6428716,113.480102 28.3080511,115.182653 30.1662949,116.669388 C21.0198743,113.264286 14.4798215,104.487755 14.4798215,94.2005102 L14.4798215,29 L9.65321436,29 L9.65321436,94.2244898 C9.65321436,103.312755 13.9006287,111.417857 20.5130805,116.693367 C11.3666599,113.288265 4.82660718,104.511735 4.82660718,94.2244898 L4.82660718,29 L0,29 L0,94.2244898 C0,110.122959 12.9594403,123 28.9596431,123 L94.6015007,123 C104.858041,123 113.859663,117.70051 119,109.715306 L119,109.715306 Z" id="Shape" fill="#B3BED3"></path>
            </g>
        </g>
    </g>
</svg>