<?xml version="1.0" encoding="UTF-8" standalone="no"?>
<svg width="135px" height="143px" viewBox="0 0 135 143" version="1.1" xmlns="http://www.w3.org/2000/svg" xmlns:xlink="http://www.w3.org/1999/xlink">
    <!-- Generator: Sketch 46.1 (44463) - http://www.bohemiancoding.com/sketch -->
    <title>office-material</title>
    <desc>Created with Sketch.</desc>
    <defs>
        <filter x="-13.2%" y="-9.2%" width="127.4%" height="124.8%" filterUnits="objectBoundingBox" id="filter-1">
            <feOffset dx="0" dy="4" in="SourceAlpha" result="shadowOffsetOuter1"></feOffset>
            <feGaussianBlur stdDeviation="4.5" in="shadowOffsetOuter1" result="shadowBlurOuter1"></feGaussianBlur>
            <feColorMatrix values="0 0 0 0 0   0 0 0 0 0   0 0 0 0 0  0 0 0 0.123075181 0" type="matrix" in="shadowBlurOuter1" result="shadowMatrixOuter1"></feColorMatrix>
            <feMerge>
                <feMergeNode in="shadowMatrixOuter1"></feMergeNode>
                <feMergeNode in="SourceGraphic"></feMergeNode>
            </feMerge>
        </filter>
    </defs>
    <g id="Application-Desktop" stroke="none" stroke-width="1" fill="none" fill-rule="evenodd">
        <g id="01.-Trang_Chu_Ver2" transform="translate(-1478.000000, -338.000000)" fill-rule="nonzero">
            <g id="office-material" filter="url(#filter-1)" transform="translate(1487.000000, 343.000000)">
                <path d="M75.9856204,125 L42.9482639,125 C41.1236669,125 39.6446281,123.55249 39.6446281,121.767334 L39.6446281,3.23266602 C39.6446281,1.44750977 41.1239164,0 42.9482639,0 L75.9856204,0 C77.8102174,0 79.2892562,1.44750977 79.2892562,3.23266602 L79.2892562,121.76709 C79.2892562,123.55249 77.8099679,125 75.9856204,125 Z" id="Shape" fill="#FFD06D"></path>
                <path d="M68.4916564,75.9615385 L47.5414014,75.9615385 C46.3844336,75.9615385 45.446281,74.9887566 45.446281,73.7890826 L45.446281,19.4801481 C45.446281,18.2804741 46.3844336,17.3076923 47.5414014,17.3076923 L68.4916564,17.3076923 C69.6486243,17.3076923 70.5867769,18.2804741 70.5867769,19.4801481 L70.5867769,73.7890826 C70.5867769,74.9887566 69.6486243,75.9615385 68.4916564,75.9615385 Z" id="Shape" fill="#EFF2FA"></path>
                <g id="Group" transform="translate(49.314050, 31.730769)" fill="#D7DEED">
                    <path d="M15.1043616,4.45209736 L2.30059711,4.45209736 C1.12213636,4.45209736 0.166555785,3.47810096 0.166555785,2.27692909 C0.166555785,1.07575721 1.12213636,0.101760817 2.30059711,0.101760817 L15.1043616,0.101760817 C16.2828223,0.101760817 17.2384029,1.07575721 17.2384029,2.27692909 C17.2384029,3.47810096 16.2828223,4.45209736 15.1043616,4.45209736 Z" id="Shape"></path>
                    <path d="M15.1043616,13.1522776 L2.30059711,13.1522776 C1.12213636,13.1522776 0.166555785,12.1782813 0.166555785,10.9771094 C0.166555785,9.7759375 1.12213636,8.80194111 2.30059711,8.80194111 L15.1043616,8.80194111 C16.2828223,8.80194111 17.2384029,9.7759375 17.2384029,10.9771094 C17.2384029,12.1782813 16.2828223,13.1522776 15.1043616,13.1522776 Z" id="Shape"></path>
                    <path d="M15.1043616,21.8527043 L2.30059711,21.8527043 C1.12213636,21.8527043 0.166555785,20.8787079 0.166555785,19.6775361 C0.166555785,18.4763642 1.12213636,17.5023678 2.30059711,17.5023678 L15.1043616,17.5023678 C16.2828223,17.5023678 17.2384029,18.4763642 17.2384029,19.6775361 C17.2381612,20.8787079 16.2828223,21.8527043 15.1043616,21.8527043 Z" id="Shape"></path>
                    <path d="M15.1043616,39.2530649 L2.30059711,39.2530649 C1.12213636,39.2530649 0.166555785,38.2790685 0.166555785,37.0778966 C0.166555785,35.8767248 1.12213636,34.9027284 2.30059711,34.9027284 L15.1043616,34.9027284 C16.2828223,34.9027284 17.2384029,35.8767248 17.2384029,37.0778966 C17.2384029,38.2790685 16.2828223,39.2530649 15.1043616,39.2530649 Z" id="Shape"></path>
                </g>
                <g id="Group" transform="translate(45.446281, 14.423077)" fill="#C7CFE2">
                    <rect id="Rectangle-path" x="0.00806393264" y="42.8496302" width="25.1241308" height="4.26575444"></rect>
                    <path d="M25.1324319,10.8561095 L0.00806393264,10.8561095 L0.00806393264,2.32460059 C0.00806393264,1.14671598 0.945614689,0.191602564 2.10184032,0.191602564 L23.0386555,0.191602564 C24.1948812,0.191602564 25.1324319,1.14671598 25.1324319,2.32460059 L25.1324319,10.8561095 L25.1324319,10.8561095 Z" id="Shape"></path>
                </g>
                <ellipse id="Oval" fill="#464655" cx="58.5" cy="94.7115385" rx="5.31818182" ry="5.28846154"></ellipse>
                <path d="M58.0165289,103.846154 C52.6842777,103.846154 48.3471074,99.5329795 48.3471074,94.2307692 C48.3471074,88.928559 52.6842777,84.6153846 58.0165289,84.6153846 C63.3487801,84.6153846 67.6859504,88.9283169 67.6859504,94.2307692 C67.6859504,99.5332215 63.3487801,103.846154 58.0165289,103.846154 Z M58.0165289,88.888862 C55.054654,88.888862 52.6446011,91.2854465 52.6446011,94.2307692 C52.6446011,97.176092 55.054654,99.5726765 58.0165289,99.5726765 C60.9784039,99.5726765 63.3884568,97.176092 63.3884568,94.2307692 C63.3884568,91.2854465 60.9784039,88.888862 58.0165289,88.888862 Z" id="Shape" fill="#EFF2FA"></path>
                <path d="M113.696115,125 L80.6590077,125 C78.8344107,125 77.3553719,123.55249 77.3553719,121.767334 L77.3553719,3.23266602 C77.3551224,1.44750977 78.8344107,0 80.6590077,0 L113.696364,0 C115.520961,0 117,1.44750977 117,3.23266602 L117,121.76709 C117,123.55249 115.520712,125 113.696115,125 Z" id="Shape" fill="#A3D041"></path>
                <path d="M107.169342,75.9615385 L86.2190874,75.9615385 C85.0621195,75.9615385 84.1239669,74.9887566 84.1239669,73.7890826 L84.1239669,19.4801481 C84.1239669,18.2804741 85.0621195,17.3076923 86.2190874,17.3076923 L107.169342,17.3076923 C108.32631,17.3076923 109.264463,18.2804741 109.264463,19.4801481 L109.264463,73.7890826 C109.264463,74.9887566 108.326548,75.9615385 107.169342,75.9615385 Z" id="Shape" fill="#EFF2FA"></path>
                <g id="Group" transform="translate(88.958678, 31.730769)" fill="#D7DEED">
                    <path d="M15.0792211,4.45209736 L2.27545661,4.45209736 C1.09699587,4.45209736 0.141415289,3.47810096 0.141415289,2.27692909 C0.141415289,1.07575721 1.09699587,0.101760817 2.27545661,0.101760817 L15.0792211,0.101760817 C16.2576818,0.101760817 17.2132624,1.07575721 17.2132624,2.27692909 C17.2132624,3.47810096 16.2576818,4.45209736 15.0792211,4.45209736 Z" id="Shape"></path>
                    <path d="M15.0792211,13.1522776 L2.27545661,13.1522776 C1.09699587,13.1522776 0.141415289,12.1782813 0.141415289,10.9771094 C0.141415289,9.7759375 1.09699587,8.80194111 2.27545661,8.80194111 L15.0792211,8.80194111 C16.2576818,8.80194111 17.2132624,9.7759375 17.2132624,10.9771094 C17.2132624,12.1782813 16.2576818,13.1522776 15.0792211,13.1522776 Z" id="Shape"></path>
                    <path d="M15.0792211,21.8527043 L2.27545661,21.8527043 C1.09699587,21.8527043 0.141415289,20.8787079 0.141415289,19.6775361 C0.141415289,18.4763642 1.09699587,17.5023678 2.27545661,17.5023678 L15.0792211,17.5023678 C16.2576818,17.5023678 17.2132624,18.4763642 17.2132624,19.6775361 C17.2132624,20.8787079 16.2576818,21.8527043 15.0792211,21.8527043 Z" id="Shape"></path>
                    <path d="M15.0792211,39.2530649 L2.27545661,39.2530649 C1.09699587,39.2530649 0.141415289,38.2790685 0.141415289,37.0778966 C0.141415289,35.8767248 1.09699587,34.9027284 2.27545661,34.9027284 L15.0792211,34.9027284 C16.2576818,34.9027284 17.2132624,35.8767248 17.2132624,37.0778966 C17.2132624,38.2790685 16.2576818,39.2530649 15.0792211,39.2530649 Z" id="Shape"></path>
                </g>
                <g id="Group" transform="translate(84.123967, 14.423077)" fill="#C7CFE2">
                    <rect id="Rectangle-path" x="0" y="43.2692308" width="25.1404959" height="4.26575444"></rect>
                    <path d="M25.1402585,10.6645069 L0,10.6645069 L0,2.13299803 C0,0.955113412 0.93815259,0 2.09512043,0 L23.0453754,0 C24.2023433,0 25.1404959,0.955113412 25.1404959,2.13299803 L25.1404959,10.6645069 L25.1402585,10.6645069 Z" id="Shape"></path>
                </g>
                <ellipse id="Oval" fill="#464655" cx="97.177686" cy="94.7115385" rx="5.31818182" ry="5.28846154"></ellipse>
                <path d="M97.661157,103.846154 C92.3289058,103.846154 87.9917355,99.5329795 87.9917355,94.2307692 C87.9917355,88.928559 92.3289058,84.6153846 97.661157,84.6153846 C102.993408,84.6153846 107.330579,88.9283169 107.330579,94.2307692 C107.330579,99.5332215 102.992921,103.846154 97.661157,103.846154 Z M97.661157,88.888862 C94.6992821,88.888862 92.2892292,91.2854465 92.2892292,94.2307692 C92.2892292,97.176092 94.6992821,99.5726765 97.661157,99.5726765 C100.623032,99.5726765 103.033085,97.176092 103.033085,94.2307692 C103.033085,91.2854465 100.622789,88.888862 97.661157,88.888862 Z" id="Shape" fill="#EFF2FA"></path>
                <path d="M36.3409715,125 L3.30365663,125 C1.47904815,125 0,123.55249 0,121.767334 L0,3.23266602 C-0.000249502049,1.44750977 1.47904815,0 3.30365663,0 L36.3409715,0 C38.16558,0 39.6446281,1.44750977 39.6446281,3.23266602 L39.6446281,121.76709 C39.6448776,123.55249 38.16558,125 36.3409715,125 Z" id="Shape" fill="#FF5757"></path>
                <path d="M29.8137332,75.9615385 L8.86371547,75.9615385 C7.70674763,75.9615385 6.76859504,74.9887566 6.76859504,73.7890826 L6.76859504,19.4801481 C6.76859504,18.2804741 7.70674763,17.3076923 8.86371547,17.3076923 L29.8139705,17.3076923 C30.9709383,17.3076923 31.9090909,18.2804741 31.9090909,19.4801481 L31.9090909,73.7890826 C31.9088536,74.9887566 30.970701,75.9615385 29.8137332,75.9615385 Z" id="Shape" fill="#EFF2FA"></path>
                <g id="Group" transform="translate(10.636364, 31.730769)" fill="#D7DEED">
                    <path d="M15.1292603,4.45209736 L2.3257376,4.45209736 C1.14727686,4.45209736 0.191696281,3.47810096 0.191696281,2.27692909 C0.191696281,1.07575721 1.14727686,0.101760817 2.3257376,0.101760817 L15.1295021,0.101760817 C16.3079628,0.101760817 17.2635434,1.07575721 17.2635434,2.27692909 C17.2635434,3.47810096 16.3077211,4.45209736 15.1292603,4.45209736 Z" id="Shape"></path>
                    <path d="M15.1292603,13.1522776 L2.3257376,13.1522776 C1.14727686,13.1522776 0.191696281,12.1782813 0.191696281,10.9771094 C0.191696281,9.7759375 1.14727686,8.80194111 2.3257376,8.80194111 L15.1295021,8.80194111 C16.3079628,8.80194111 17.2635434,9.7759375 17.2635434,10.9771094 C17.2635434,12.1782813 16.3077211,13.1522776 15.1292603,13.1522776 Z" id="Shape"></path>
                    <path d="M15.1292603,21.8527043 L2.3257376,21.8527043 C1.14727686,21.8527043 0.191696281,20.8787079 0.191696281,19.6775361 C0.191696281,18.4763642 1.14727686,17.5023678 2.3257376,17.5023678 L15.1295021,17.5023678 C16.3079628,17.5023678 17.2635434,18.4763642 17.2635434,19.6775361 C17.2633017,20.8787079 16.3077211,21.8527043 15.1292603,21.8527043 Z" id="Shape"></path>
                    <path d="M15.1292603,39.2530649 L2.3257376,39.2530649 C1.14727686,39.2530649 0.191696281,38.2790685 0.191696281,37.0778966 C0.191696281,35.8767248 1.14727686,34.9027284 2.3257376,34.9027284 L15.1295021,34.9027284 C16.3079628,34.9027284 17.2635434,35.8767248 17.2635434,37.0778966 C17.2635434,38.2790685 16.3077211,39.2530649 15.1292603,39.2530649 Z" id="Shape"></path>
                </g>
                <g id="Group" transform="translate(6.768595, 14.423077)" fill="#C7CFE2">
                    <rect id="Rectangle-path" x="0.0336712752" y="42.8496302" width="25.1404959" height="4.26575444"></rect>
                    <path d="M25.1739298,10.8561095 L0.0336712752,10.8561095 L0.0336712752,2.32460059 C0.0336712752,1.14671598 0.971823865,0.191602564 2.12879171,0.191602564 L23.0790467,0.191602564 C24.2360146,0.191602564 25.1741671,1.14671598 25.1741671,2.32460059 L25.1741671,10.8561095 L25.1739298,10.8561095 Z" id="Shape"></path>
                </g>
                <ellipse id="Oval" fill="#464655" cx="19.822314" cy="94.7115385" rx="5.31818182" ry="5.28846154"></ellipse>
                <path d="M19.338843,103.846154 C14.0065918,103.846154 9.66942149,99.5329795 9.66942149,94.2307692 C9.66942149,88.928559 14.0065918,84.6153846 19.338843,84.6153846 C24.6710942,84.6153846 29.0082645,88.9283169 29.0082645,94.2307692 C29.0082645,99.5332215 24.6710942,103.846154 19.338843,103.846154 Z M19.338843,88.888862 C16.376968,88.888862 13.9669151,91.2854465 13.9669151,94.2307692 C13.9669151,97.176092 16.376968,99.5726765 19.338843,99.5726765 C22.3007179,99.5726765 24.7107708,97.176092 24.7107708,94.2307692 C24.7107708,91.2854465 22.3007179,88.888862 19.338843,88.888862 Z" id="Shape" fill="#EFF2FA"></path>
            </g>
        </g>
    </g>
</svg>