<?xml version="1.0" encoding="UTF-8" standalone="no"?>
<svg width="39px" height="50px" viewBox="0 0 39 50" version="1.1" xmlns="http://www.w3.org/2000/svg" xmlns:xlink="http://www.w3.org/1999/xlink">
    <!-- Generator: Sketch 46.1 (44463) - http://www.bohemiancoding.com/sketch -->
    <title>doc copy 9</title>
    <desc>Created with Sketch.</desc>
    <defs></defs>
    <g id="Application-Desktop" stroke="none" stroke-width="1" fill="none" fill-rule="evenodd">
        <g id="05.Bieu_Mau_Dien_Tu" transform="translate(-1322.000000, -856.000000)" fill-rule="nonzero">
            <g id="doc-copy-9" transform="translate(1322.000000, 856.000000)">
                <path d="M27.4639773,0 L1.73993182,0 C1.02375,0 0.443181818,0.584821429 0.443181818,1.71964286 L0.443181818,49.1071429 C0.443181818,49.4151786 1.02375,50 1.73993182,50 L37.2600682,50 C37.97625,50 38.5568182,49.4151786 38.5568182,49.1071429 L38.5568182,11.5875 C38.5568182,10.9660714 38.4743864,10.7660714 38.3290227,10.61875 L28.0152955,0.229464286 C27.8690455,0.0830357143 27.6705,0 27.4639773,0 Z" id="Shape" fill="#E9E9E0"></path>
                <polygon id="Shape" fill="#D9D7CA" points="27.9204545 0.134821429 27.9204545 10.7142857 38.4229773 10.7142857"></polygon>
                <path d="M11.0795455,11.6071429 L5.76136364,11.6071429 C5.27209091,11.6071429 4.875,11.2071429 4.875,10.7142857 C4.875,10.2214286 5.27209091,9.82142857 5.76136364,9.82142857 L11.0795455,9.82142857 C11.5688182,9.82142857 11.9659091,10.2214286 11.9659091,10.7142857 C11.9659091,11.2071429 11.5688182,11.6071429 11.0795455,11.6071429 Z" id="Shape" fill="#0080FE"></path>
                <path d="M13.7386364,16.0714286 L5.76136364,16.0714286 C5.27209091,16.0714286 4.875,15.6714286 4.875,15.1785714 C4.875,14.6857143 5.27209091,14.2857143 5.76136364,14.2857143 L13.7386364,14.2857143 C14.2279091,14.2857143 14.625,14.6857143 14.625,15.1785714 C14.625,15.6714286 14.2279091,16.0714286 13.7386364,16.0714286 Z" id="Shape" fill="#0080FE"></path>
                <path d="M17.2840909,16.0714286 C17.0536364,16.0714286 16.8231818,15.9732143 16.6547727,15.8125 C16.4952273,15.6428571 16.3977273,15.4107143 16.3977273,15.1785714 C16.3977273,14.9464286 16.4952273,14.7142857 16.6547727,14.5446429 C16.9827273,14.2142857 17.5854545,14.2142857 17.9134091,14.5446429 C18.0729545,14.7142857 18.1704545,14.9464286 18.1704545,15.1785714 C18.1704545,15.4107143 18.0729545,15.6428571 17.9134091,15.8125 C17.745,15.9732143 17.5145455,16.0714286 17.2840909,16.0714286 Z" id="Shape" fill="#0080FE"></path>
                <path d="M27.9204545,16.0714286 L20.8295455,16.0714286 C20.3402727,16.0714286 19.9431818,15.6714286 19.9431818,15.1785714 C19.9431818,14.6857143 20.3402727,14.2857143 20.8295455,14.2857143 L27.9204545,14.2857143 C28.4097273,14.2857143 28.8068182,14.6857143 28.8068182,15.1785714 C28.8068182,15.6714286 28.4097273,16.0714286 27.9204545,16.0714286 Z" id="Shape" fill="#0080FE"></path>
                <path d="M5.76136364,29.4642857 C5.53090909,29.4642857 5.30045455,29.3660714 5.13204545,29.2053571 C4.9725,29.0357143 4.875,28.8035714 4.875,28.5714286 C4.875,28.3392857 4.9725,28.1071429 5.13204545,27.9375 C5.46,27.6071429 6.06272727,27.6071429 6.39068182,27.9375 C6.55022727,28.1071429 6.64772727,28.3303571 6.64772727,28.5714286 C6.64772727,28.8035714 6.55022727,29.0357143 6.39068182,29.2053571 C6.22227273,29.3660714 5.99181818,29.4642857 5.76136364,29.4642857 Z" id="Shape" fill="#0080FE"></path>
                <path d="M16.3977273,29.4642857 L9.30681818,29.4642857 C8.81754545,29.4642857 8.42045455,29.0642857 8.42045455,28.5714286 C8.42045455,28.0785714 8.81754545,27.6785714 9.30681818,27.6785714 L16.3977273,27.6785714 C16.887,27.6785714 17.2840909,28.0785714 17.2840909,28.5714286 C17.2840909,29.0642857 16.887,29.4642857 16.3977273,29.4642857 Z" id="Shape" fill="#0080FE"></path>
                <path d="M33.2386364,16.0714286 L31.4659091,16.0714286 C30.9766364,16.0714286 30.5795455,15.6714286 30.5795455,15.1785714 C30.5795455,14.6857143 30.9766364,14.2857143 31.4659091,14.2857143 L33.2386364,14.2857143 C33.7279091,14.2857143 34.125,14.6857143 34.125,15.1785714 C34.125,15.6714286 33.7279091,16.0714286 33.2386364,16.0714286 Z" id="Shape" fill="#0080FE"></path>
                <path d="M25.2613636,20.5357143 L5.76136364,20.5357143 C5.27209091,20.5357143 4.875,20.1357143 4.875,19.6428571 C4.875,19.15 5.27209091,18.75 5.76136364,18.75 L25.2613636,18.75 C25.7506364,18.75 26.1477273,19.15 26.1477273,19.6428571 C26.1477273,20.1357143 25.7506364,20.5357143 25.2613636,20.5357143 Z" id="Shape" fill="#0080FE"></path>
                <path d="M33.2386364,20.5357143 L27.9204545,20.5357143 C27.4311818,20.5357143 27.0340909,20.1357143 27.0340909,19.6428571 C27.0340909,19.15 27.4311818,18.75 27.9204545,18.75 L33.2386364,18.75 C33.7279091,18.75 34.125,19.15 34.125,19.6428571 C34.125,20.1357143 33.7279091,20.5357143 33.2386364,20.5357143 Z" id="Shape" fill="#0080FE"></path>
                <path d="M9.30681818,25 L5.76136364,25 C5.27209091,25 4.875,24.6 4.875,24.1071429 C4.875,23.6142857 5.27209091,23.2142857 5.76136364,23.2142857 L9.30681818,23.2142857 C9.79609091,23.2142857 10.1931818,23.6142857 10.1931818,24.1071429 C10.1931818,24.6 9.79609091,25 9.30681818,25 Z" id="Shape" fill="#0080FE"></path>
                <path d="M21.7159091,25 L12.8522727,25 C12.363,25 11.9659091,24.6 11.9659091,24.1071429 C11.9659091,23.6142857 12.363,23.2142857 12.8522727,23.2142857 L21.7159091,23.2142857 C22.2051818,23.2142857 22.6022727,23.6142857 22.6022727,24.1071429 C22.6022727,24.6 22.2051818,25 21.7159091,25 Z" id="Shape" fill="#0080FE"></path>
                <path d="M33.2386364,25 L25.2613636,25 C24.7720909,25 24.375,24.6 24.375,24.1071429 C24.375,23.6142857 24.7720909,23.2142857 25.2613636,23.2142857 L33.2386364,23.2142857 C33.7279091,23.2142857 34.125,23.6142857 34.125,24.1071429 C34.125,24.6 33.7279091,25 33.2386364,25 Z" id="Shape" fill="#0080FE"></path>
                <path d="M37.2600682,50 L1.73993182,50 C1.02375,50 0.443181818,49.4151786 0.443181818,48.69375 L0.443181818,34.8214286 L38.5568182,34.8214286 L38.5568182,48.69375 C38.5568182,49.4151786 37.97625,50 37.2600682,50 Z" id="Shape" fill="#0080FE"></path>
                <g id="Group" transform="translate(7.977273, 37.500000)" fill="#FFFFFF">
                    <path d="M7.53409091,5.07321429 C7.53409091,5.81339286 7.45520455,6.44642857 7.29743182,6.97142857 C7.13965909,7.49642857 6.94022727,7.93571429 6.69736364,8.29017857 C6.4545,8.64464286 6.18238636,8.92321429 5.87925,9.12678571 C5.57611364,9.33035714 5.28361364,9.48214286 5.00086364,9.58482143 C4.71811364,9.68660714 4.45929545,9.75178571 4.22529545,9.78035714 C3.99129545,9.80714286 3.81756818,9.82142857 3.705,9.82142857 L0.324409091,9.82142857 L0.324409091,0.825 L3.01363636,0.825 C3.76527273,0.825 4.42561364,0.945535714 4.99465909,1.18482143 C5.56370455,1.42410714 6.03702273,1.74464286 6.41284091,2.14285714 C6.78865909,2.54107143 7.06875,2.99553571 7.25488636,3.50357143 C7.44102273,4.0125 7.53409091,4.53571429 7.53409091,5.07321429 Z M3.22015909,8.74732143 C4.20579545,8.74732143 4.91665909,8.43035714 5.35275,7.79553571 C5.78884091,7.16071429 6.00688636,6.24107143 6.00688636,5.03660714 C6.00688636,4.6625 5.96256818,4.29196429 5.87393182,3.92589286 C5.78440909,3.55982143 5.61334091,3.22857143 5.35895455,2.93125 C5.10456818,2.63392857 4.75888636,2.39375 4.32279545,2.21071429 C3.88670455,2.02767857 3.32120455,1.93571429 2.62629545,1.93571429 L1.77804545,1.93571429 L1.77804545,8.74732143 L3.22015909,8.74732143 L3.22015909,8.74732143 Z" id="Shape"></path>
                    <path d="M16.3755682,5.28035714 C16.3755682,6.0375 16.2807273,6.70446429 16.0910455,7.28214286 C15.9013636,7.85982143 15.6381136,8.34017857 15.3030682,8.72232143 C14.9680227,9.10535714 14.57625,9.39375 14.12775,9.58928571 C13.67925,9.78482143 13.1882045,9.88214286 12.6555,9.88214286 C12.1227955,9.88214286 11.63175,9.78482143 11.18325,9.58928571 C10.73475,9.39375 10.3429773,9.10535714 10.0079318,8.72232143 C9.67288636,8.33928571 9.40963636,7.85982143 9.21995455,7.28214286 C9.03027273,6.70446429 8.93543182,6.03660714 8.93543182,5.28035714 C8.93543182,4.52410714 9.03027273,3.85803571 9.21995455,3.28482143 C9.40963636,2.71071429 9.672,2.23303571 10.0079318,1.85089286 C10.3429773,1.46785714 10.73475,1.17767857 11.18325,0.977678571 C11.63175,0.777678571 12.1227955,0.678571429 12.6555,0.678571429 C13.1882045,0.678571429 13.67925,0.777678571 14.12775,0.977678571 C14.57625,1.17767857 14.9680227,1.46785714 15.3030682,1.85089286 C15.6381136,2.23392857 15.9004773,2.71160714 16.0910455,3.28482143 C16.2798409,3.85803571 16.3755682,4.52321429 16.3755682,5.28035714 Z M12.6182727,8.68660714 C12.9169773,8.68660714 13.2015,8.62767857 13.4727273,8.50982143 C13.7430682,8.39196429 13.9859318,8.19821429 14.1995455,7.93035714 C14.4131591,7.66160714 14.5815682,7.30982143 14.7021136,6.87410714 C14.8226591,6.43839286 14.8873636,5.90803571 14.8962273,5.28125 C14.88825,4.67053571 14.8253182,4.15178571 14.7083182,3.725 C14.5913182,3.29732143 14.43,2.94553571 14.2234773,2.66875 C14.0169545,2.39196429 13.7829545,2.19285714 13.5205909,2.07053571 C13.2582273,1.94821429 12.9816818,1.8875 12.6900682,1.8875 C12.3913636,1.8875 12.1059545,1.94375 11.8356136,2.05803571 C11.5643864,2.17232143 11.3224091,2.36517857 11.1087955,2.6375 C10.8942955,2.91071429 10.7267727,3.26160714 10.6062273,3.69375 C10.4856818,4.12589286 10.4200909,4.65357143 10.4121136,5.28035714 C10.4200909,5.89107143 10.4830227,6.41160714 10.6000227,6.84285714 C10.7170227,7.27410714 10.8783409,7.62589286 11.0848636,7.89910714 C11.2913864,8.17232143 11.5253864,8.37053571 11.78775,8.49732143 C12.051,8.62321429 12.3275455,8.68660714 12.6182727,8.68660714 Z" id="Shape"></path>
                    <path d="M24.4698409,8.90625 C24.1383409,9.23125 23.7625227,9.47589286 23.3432727,9.63839286 C22.9231364,9.80178571 22.4710909,9.88214286 21.98625,9.88214286 C21.4526591,9.88214286 20.9625,9.78482143 20.514,9.58928571 C20.0655,9.39375 19.6737273,9.10535714 19.3386818,8.72232143 C19.0036364,8.33928571 18.7403864,7.85982143 18.5507045,7.28214286 C18.3610227,6.70446429 18.2661818,6.03660714 18.2661818,5.28035714 C18.2661818,4.52410714 18.3610227,3.85803571 18.5507045,3.28482143 C18.7403864,2.71071429 19.00275,2.23303571 19.3386818,1.85089286 C19.6737273,1.46785714 20.0672727,1.17767857 20.5202045,0.977678571 C20.97225,0.777678571 21.4615227,0.678571429 21.98625,0.678571429 C22.4710909,0.678571429 22.9231364,0.759821429 23.3432727,0.922321429 C23.7634091,1.08571429 24.1383409,1.32946429 24.4698409,1.65446429 L23.4638182,2.55803571 C23.2617273,2.32142857 23.0374773,2.15089286 22.7910682,2.04553571 C22.5446591,1.94017857 22.2885,1.88660714 22.0217045,1.88660714 C21.723,1.88660714 21.4375909,1.94285714 21.16725,2.05714286 C20.8960227,2.17142857 20.6540455,2.36428571 20.4404318,2.63660714 C20.2259318,2.90982143 20.0584091,3.26071429 19.9378636,3.69285714 C19.8173182,4.125 19.7517273,4.65267857 19.74375,5.27946429 C19.7517273,5.89017857 19.8146591,6.41071429 19.9316591,6.84196429 C20.0486591,7.27321429 20.2099773,7.625 20.4165,7.89821429 C20.6230227,8.17142857 20.8570227,8.36964286 21.1193864,8.49642857 C21.38175,8.62321429 21.6582955,8.68571429 21.9499091,8.68571429 C22.2415227,8.68571429 22.5136364,8.63214286 22.7680227,8.52678571 C23.0224091,8.42142857 23.2546364,8.25 23.4647045,8.01428571 L24.4698409,8.90625 Z" id="Shape"></path>
                </g>
            </g>
        </g>
    </g>
</svg>