<?xml version="1.0" encoding="UTF-8" standalone="no"?>
<svg width="42px" height="32px" viewBox="0 0 42 32" version="1.1" xmlns="http://www.w3.org/2000/svg" xmlns:xlink="http://www.w3.org/1999/xlink">
    <!-- Generator: Sketch 46.1 (44463) - http://www.bohemiancoding.com/sketch -->
    <title>folder</title>
    <desc>Created with Sketch.</desc>
    <defs></defs>
    <g id="Application-Desktop" stroke="none" stroke-width="1" fill="none" fill-rule="evenodd">
        <g id="06.Bieu_Mau_Dien_Tu_Cap_Con" transform="translate(-136.000000, -429.000000)" fill-rule="nonzero">
            <g id="folder" transform="translate(136.000000, 429.000000)">
                <path d="M31.773775,1.71353284 L31.773775,1.71353284 C31.773775,0.942593638 31.142167,0.328251459 30.3769496,0.328251459 L23.5021394,0.328251459 C22.9919945,0.328251459 22.5182885,0.605307736 22.2753623,1.05100696 L21.5222912,2.40015057 C21.2793651,2.8458498 20.8056591,3.12290608 20.2955141,3.12290608 L3.81297447,3.12290608 C3.03561077,3.12290608 2.41614907,3.74929418 2.41614907,4.50818746 L2.41614907,30.1900998 C2.41614907,30.961039 3.04775707,31.5753811 3.81297447,31.5753811 L36.7659075,31.5753811 C37.5432712,31.5753811 38.1627329,30.948993 38.1627329,30.1900998 L38.1627329,4.49614154 C38.1627329,3.72520233 37.5311249,3.11086015 36.7659075,3.11086015 L33.1706004,3.11086015 C32.405383,3.11086015 31.773775,2.48447205 31.773775,1.71353284 Z" id="Shape" fill="#F49400"></path>
                <rect id="Rectangle-path" fill="#E6E9EE" x="4.55389924" y="6.98964803" width="31.8719117" height="15.0935441"></rect>
                <rect id="Rectangle-path" fill="#FFFFFF" x="4.55389924" y="9.02540937" width="31.8719117" height="13.0577828"></rect>
                <path d="M20.9392685,11.2177677 L17.4046929,16.6745718 C17.1131815,17.132317 16.6637681,17.3973273 16.1779158,17.3973273 L1.29868875,17.3973273 C0.412008282,17.3973273 -0.146721877,18.2646339 0.0476190476,19.3126294 L2.12463768,30.0816864 C2.28253968,30.9128553 3.03561077,31.5753811 3.81297447,31.5753811 L36.7659075,31.5753811 C37.5432712,31.5753811 38.2963423,30.9128553 38.4542443,30.0816864 L41.8430642,12.5789573 C42.073844,11.3864107 41.4908213,10.4106908 40.5434092,10.4106908 L22.2753623,10.4106908 C21.7530711,10.4106908 21.2672188,10.699793 20.9392685,11.2177677 Z" id="Shape" fill="#FFD05B"></path>
            </g>
        </g>
    </g>
</svg>