<?xml version="1.0" encoding="UTF-8" standalone="no"?>
<svg width="39px" height="50px" viewBox="0 0 39 50" version="1.1" xmlns="http://www.w3.org/2000/svg" xmlns:xlink="http://www.w3.org/1999/xlink">
    <!-- Generator: Sketch 46.1 (44463) - http://www.bohemiancoding.com/sketch -->
    <title>pdf (3) copy 3</title>
    <desc>Created with Sketch.</desc>
    <defs></defs>
    <g id="Application-Desktop" stroke="none" stroke-width="1" fill="none" fill-rule="evenodd">
        <g id="05.Bieu_Mau_Dien_Tu" transform="translate(-1322.000000, -728.000000)" fill-rule="nonzero">
            <g id="pdf-(3)-copy-3" transform="translate(1322.000000, 728.000000)">
                <path d="M27.4639773,0 L1.73993182,0 C1.02375,0 0.443181818,0.584821429 0.443181818,1.71964286 L0.443181818,49.1071429 C0.443181818,49.4151786 1.02375,50 1.73993182,50 L37.2600682,50 C37.97625,50 38.5568182,49.4151786 38.5568182,49.1071429 L38.5568182,11.5875 C38.5568182,10.9660714 38.4743864,10.7660714 38.3290227,10.61875 L28.0152955,0.229464286 C27.8690455,0.0830357143 27.6705,0 27.4639773,0 Z" id="Shape" fill="#E9E9E0"></path>
                <polygon id="Shape" fill="#D9D7CA" points="27.9204545 0.134821429 27.9204545 10.7142857 38.4229773 10.7142857"></polygon>
                <path d="M11.9783182,29.7535714 L11.9783182,29.7535714 C11.6698636,29.7535714 11.3738182,29.6526786 11.1212045,29.4625 C10.1985,28.7651786 10.0744091,27.9892857 10.1329091,27.4607143 C10.2942273,26.0071429 12.0784773,24.4857143 15.4377955,22.9357143 C16.7708864,19.9928571 18.0392727,16.3669643 18.7953409,13.3375 C17.91075,11.3982143 17.0509773,8.88214286 17.6776364,7.40625 C17.8974545,6.88928571 18.1713409,6.49285714 18.6827727,6.32142857 C18.8848636,6.25357143 19.3954091,6.16785714 19.5833182,6.16785714 C20.0300455,6.16785714 20.4227045,6.74732143 20.7010227,7.10446429 C20.9625,7.44017857 21.5554773,8.15178571 20.3704091,13.1776786 C21.5652273,15.6633929 23.2581818,18.1955357 24.8802273,19.9294643 C26.04225,19.7178571 27.0420682,19.6098214 27.8566364,19.6098214 C29.2446818,19.6098214 30.0858409,19.9357143 30.4288636,20.6071429 C30.7125,21.1625 30.5963864,21.8116071 30.0831818,22.5357143 C29.5894773,23.23125 28.90875,23.5991071 28.1154545,23.5991071 C27.0376364,23.5991071 25.7825455,22.9133929 24.3829773,21.5589286 C21.8683636,22.0883929 18.9318409,23.0330357 16.5581591,24.0785714 C15.8171591,25.6625 15.1071818,26.9383929 14.4459545,27.8741071 C13.5374318,29.1553571 12.7538864,29.7535714 11.9783182,29.7535714 Z M14.3378182,25.1767857 C12.4436591,26.2491071 11.6716364,27.1303571 11.6157955,27.6267857 C11.6069318,27.7089286 11.583,27.925 11.9978182,28.2446429 C12.1298864,28.2026786 12.9010227,27.8482143 14.3378182,25.1767857 Z M26.4251591,21.2107143 C27.1475455,21.7705357 27.3239318,22.0535714 27.7963636,22.0535714 C28.0037727,22.0535714 28.5949773,22.0446429 28.8688636,21.6598214 C29.0009318,21.4732143 29.0523409,21.3535714 29.0727273,21.2892857 C28.9637045,21.23125 28.8192273,21.1133929 28.03125,21.1133929 C27.5836364,21.1142857 27.0207955,21.1339286 26.4251591,21.2107143 Z M19.8040227,15.3339286 C19.1702727,17.5428571 18.3335455,19.9276786 17.4338864,22.0875 C19.2863864,21.3633929 21.3002045,20.73125 23.1917045,20.2839286 C21.9951136,18.8839286 20.7994091,17.1357143 19.8040227,15.3339286 Z M19.266,7.77857143 C19.1791364,7.80803571 18.0871364,9.34732143 19.3510909,10.65 C20.19225,8.76160714 19.3041136,7.76607143 19.266,7.77857143 Z" id="Shape" fill="#E2564C"></path>
                <path d="M37.2600682,50 L1.73993182,50 C1.02375,50 0.443181818,49.4151786 0.443181818,48.69375 L0.443181818,34.8214286 L38.5568182,34.8214286 L38.5568182,48.69375 C38.5568182,49.4151786 37.97625,50 37.2600682,50 Z" id="Shape" fill="#E2564C"></path>
                <g id="Group" transform="translate(7.977273, 37.500000)" fill="#FFFFFF">
                    <path d="M2.11397727,9.82142857 L0.659454545,9.82142857 L0.659454545,0.825 L3.22813636,0.825 C3.6075,0.825 3.98331818,0.885714286 4.35470455,1.00803571 C4.72609091,1.13035714 5.05936364,1.31339286 5.35452273,1.55714286 C5.64968182,1.80089286 5.88811364,2.09642857 6.06981818,2.44196429 C6.25152273,2.7875 6.34281818,3.17589286 6.34281818,3.60803571 C6.34281818,4.06428571 6.26570455,4.47678571 6.11236364,4.84732143 C5.95902273,5.21785714 5.74452273,5.52946429 5.46975,5.78125 C5.19497727,6.03303571 4.86347727,6.22857143 4.47613636,6.36696429 C4.08879545,6.50535714 3.65979545,6.57410714 3.19179545,6.57410714 L2.11309091,6.57410714 L2.11309091,9.82142857 L2.11397727,9.82142857 Z M2.11397727,1.93571429 L2.11397727,5.5 L3.44706818,5.5 C3.62434091,5.5 3.79984091,5.46964286 3.97445455,5.40803571 C4.14818182,5.34732143 4.30772727,5.24732143 4.45309091,5.10892857 C4.59845455,4.97053571 4.71545455,4.77767857 4.80409091,4.52946429 C4.89272727,4.28125 4.93704545,3.97410714 4.93704545,3.60803571 C4.93704545,3.46160714 4.91665909,3.29196429 4.87677273,3.10178571 C4.836,2.91071429 4.75356818,2.72767857 4.62859091,2.55267857 C4.50272727,2.37767857 4.32722727,2.23125 4.10120455,2.11339286 C3.87518182,1.99553571 3.57559091,1.93660714 3.20420455,1.93660714 L2.11397727,1.93660714 L2.11397727,1.93571429 Z" id="Shape"></path>
                    <path d="M15.2622955,5.07321429 C15.2622955,5.81339286 15.1834091,6.44642857 15.0256364,6.97142857 C14.8678636,7.49642857 14.6684318,7.93571429 14.4255682,8.29017857 C14.1827045,8.64464286 13.9105909,8.92321429 13.6074545,9.12678571 C13.3043182,9.33035714 13.0118182,9.48214286 12.7290682,9.58482143 C12.4463182,9.68660714 12.1875,9.75178571 11.9535,9.78035714 C11.7195,9.80714286 11.5457727,9.82142857 11.4323182,9.82142857 L8.05172727,9.82142857 L8.05172727,0.825 L10.7418409,0.825 C11.4934773,0.825 12.1538182,0.945535714 12.7228636,1.18482143 C13.2919091,1.42410714 13.7652273,1.74464286 14.1410455,2.14285714 C14.5168636,2.54107143 14.7969545,2.99553571 14.9830909,3.50357143 C15.1692273,4.0125 15.2622955,4.53571429 15.2622955,5.07321429 Z M10.9483636,8.74732143 C11.934,8.74732143 12.6448636,8.43035714 13.0809545,7.79553571 C13.5170455,7.16071429 13.7350909,6.24107143 13.7350909,5.03660714 C13.7350909,4.6625 13.6907727,4.29196429 13.6021364,3.92589286 C13.5126136,3.55982143 13.3415455,3.22857143 13.0871591,2.93125 C12.8327727,2.63392857 12.4870909,2.39375 12.051,2.21071429 C11.6149091,2.02767857 11.0494091,1.93571429 10.3545,1.93571429 L9.50625,1.93571429 L9.50625,8.74732143 L10.9483636,8.74732143 L10.9483636,8.74732143 Z" id="Shape"></path>
                    <polygon id="Shape" points="18.8494091 1.93571429 18.8494091 4.76785714 22.5818864 4.76785714 22.5818864 5.76875 18.8494091 5.76875 18.8494091 9.82142857 17.3709545 9.82142857 17.3709545 0.825 22.9568182 0.825 22.9568182 1.93571429"></polygon>
                </g>
            </g>
        </g>
    </g>
</svg>