<?xml version="1.0" encoding="UTF-8" standalone="no"?>
<svg width="56px" height="56px" viewBox="0 0 56 56" version="1.1" xmlns="http://www.w3.org/2000/svg" xmlns:xlink="http://www.w3.org/1999/xlink">
    <!-- Generator: Sketch 46.1 (44463) - http://www.bohemiancoding.com/sketch -->
    <title>phone (1)</title>
    <desc>Created with Sketch.</desc>
    <defs></defs>
    <g id="Application-Desktop" stroke="none" stroke-width="1" fill="none" fill-rule="evenodd">
        <g id="17.-Gop_Y_Thong_Bao_Loi" transform="translate(-1580.000000, -33.000000)" fill-rule="nonzero">
            <g id="Group-4" transform="translate(1580.000000, 22.000000)">
                <g id="phone-(1)" transform="translate(0.000000, 11.000000)">
                    <g id="Group" transform="translate(5.066667, 0.000000)">
                        <path d="M49.6133297,39.0086195 C47.8211576,35.626936 41.2105164,31.7587879 41.2105164,31.7587879 C39.7148364,30.9074747 37.9103891,30.8122559 37.0567939,32.330101 C37.0567939,32.330101 34.9095867,34.9019529 34.3628703,35.2715152 C31.8672376,36.96 29.5557321,36.8949495 27.2225091,34.5644444 L21.7997248,29.1501684 L16.3769406,23.7358923 C14.0427733,21.4053872 13.9776206,19.0984512 15.6687588,16.606734 C16.0389018,16.0608754 18.6147952,13.917037 18.6147952,13.917037 C20.1340812,13.0647811 20.039657,11.263165 19.1870061,9.76983165 C19.1870061,9.76983165 15.3127794,3.16956229 11.9257818,1.38020202 C10.4848679,0.618451178 8.71535758,0.884309764 7.56243758,2.03542088 L5.16689455,4.42720539 C-2.42953576,12.0117172 1.31060848,20.5757576 8.90703879,28.1602694 L15.8500533,35.0923906 L22.7930679,42.0245118 C30.3894982,49.6090236 38.9669964,53.3442424 46.5634267,45.7587879 L48.9589697,43.3670034 C50.1100012,42.2140067 50.3762776,40.4472727 49.6133297,39.0086195 Z" id="Shape" fill="#FB2B2B"></path>
                        <path d="M37.5071976,50.8553535 C36.5119661,50.8553535 35.4978497,50.7356229 34.4639042,50.4971044 C30.5622945,49.5958249 26.4104606,46.9692929 22.1236,42.6891582 L8.23851515,28.8258586 C3.95165455,24.5457239 1.32099515,20.3994613 0.418299394,16.5049158 C-0.664746667,11.8307071 0.708181818,7.5430303 4.49837091,3.75973064 L6.8929697,1.36794613 C8.34804727,-0.0848484848 10.5471879,-0.415757576 12.3657988,0.545858586 C15.950143,2.43892256 19.8366448,9.01185185 19.9999988,9.29090909 C20.6930727,10.5051852 20.9102485,11.7515152 20.6156448,12.8102357 C20.3956364,13.6059259 19.8914109,14.2536027 19.1567903,14.690101 C18.0048145,15.6517172 16.6583248,16.8443098 16.4477588,17.1365657 C14.9341382,19.3652525 15.1126,21.1404714 17.0435758,23.0684175 L27.8891442,33.8969697 C29.8172873,35.8230303 31.5943515,36.0012121 33.8331503,34.4899663 C34.1230327,34.2806734 35.3174994,32.9372391 36.2806267,31.7870707 C36.7178109,31.0536027 37.3665055,30.5501684 38.1634461,30.3305051 C39.2247745,30.0354209 40.4711745,30.2531987 41.6788606,30.9395286 C41.968743,31.1092256 48.5520012,34.9896296 50.44804,38.5683502 L50.44804,38.5683502 C51.4111673,40.383165 51.0797382,42.5788552 49.6246606,44.0325926 L47.2291176,46.4234343 C44.2764715,49.3723906 41.0169467,50.8544108 37.5071976,50.8553535 Z M10.1827103,1.88835017 C9.46791879,1.88835017 8.76351394,2.16740741 8.22812848,2.7010101 L5.8335297,5.09279461 C2.48902303,8.43205387 1.31910667,12.0258586 2.25768364,16.0797306 C3.07917455,19.6263973 5.54081455,23.4653199 9.57367394,27.4918519 L23.4587588,41.3551515 C27.4916182,45.3816835 31.3375176,47.8394613 34.8888133,48.6596633 C38.946223,49.5911111 42.5475636,48.4296296 45.8930145,45.0894276 L48.2885576,42.6985859 C49.1534836,41.8340741 49.3498861,40.5283502 48.7786194,39.4498316 L48.7786194,39.4498316 C47.4113564,36.8694949 42.5069612,33.6103704 40.7327297,32.5714478 C39.9990533,32.1547475 39.2219418,31.9925926 38.6676715,32.1472054 C38.3277442,32.2414815 38.0699661,32.4517172 37.8792291,32.7911111 L37.7810279,32.933468 C37.1087273,33.7376431 35.4827418,35.6514478 34.8897576,36.0521212 C31.9182267,38.0630303 29.1119382,37.7868013 26.552097,35.2309764 L15.708417,24.4014815 C13.1485758,21.8456566 12.8719127,19.0447138 14.8859818,16.0769024 C15.2872848,15.4848485 17.204097,13.8614141 18.0095358,13.1901684 L18.1521164,13.0921212 C18.4910994,12.9016835 18.7026097,12.6443098 18.7970339,12.3049158 C18.9509455,11.7505724 18.78948,10.9765657 18.3655152,10.23367 C18.3343552,10.1799327 14.5932667,3.85400673 11.4829321,2.21077441 C11.0702982,1.99393939 10.6246158,1.88835017 10.1827103,1.88835017 Z" id="Shape" fill="#CD0101"></path>
                    </g>
                    <path d="M43.3597044,40.7272727 C43.326576,40.7272727 43.2924731,40.7254545 43.2583703,40.7227271 C36.5401107,40.0717984 32.1418187,36.088951 31.956689,35.919855 C31.5737628,35.5680262 31.5698653,34.9934634 31.945971,34.6361799 C32.3220766,34.2770782 32.9388508,34.2725326 33.3237257,34.6243614 C33.3636747,34.6607261 37.4423745,38.3308368 43.4590899,38.9135817 C43.9940173,38.9663105 44.3827897,39.4126876 44.3282251,39.9127027 C44.2756093,40.3790804 43.8527341,40.7272727 43.3597044,40.7272727 Z" id="Shape" fill="#CD0101"></path>
                    <path d="M23.1153201,25.4545455 C22.9025452,25.4545455 22.6897704,25.3811214 22.5121414,25.2303572 C22.2946171,25.0463075 17.1566739,20.6144295 16.4718048,13.807527 C16.4176612,13.2690836 16.7976163,12.7884006 17.3191047,12.7316193 C17.8481922,12.6816909 18.3079379,13.0674121 18.3630314,13.6048765 C18.9662102,19.5962821 23.674804,23.6796405 23.7222984,23.719779 C24.1260007,24.0653617 24.182994,24.681145 23.8495834,25.0981939 C23.6596058,25.333151 23.3888878,25.4545455 23.1153201,25.4545455 Z" id="Shape" fill="#CD0101"></path>
                    <path d="M0.936379045,55.9990455 C0.84743535,55.9990455 0.757555406,55.9856818 0.667675462,55.9589545 C0.172399519,55.8071818 -0.108475307,55.2745455 0.0394521012,54.7705455 L2.49242558,46.4345 C2.66001423,45.8655909 3.16371641,45.4847273 3.7451273,45.4847273 C4.32653819,45.4847273 4.83024038,45.8655909 4.99782903,46.4335455 L6.55387556,51.7226818 L8.1099221,46.4345 C8.27751074,45.8655909 8.78121293,45.4847273 9.36262382,45.4847273 C9.94403471,45.4847273 10.4477369,45.8655909 10.6153255,46.4335455 L12.1713721,51.7226818 L13.7274186,46.4345 C13.8950073,45.8655909 14.3987094,45.4847273 14.9801203,45.4847273 C15.5615312,45.4847273 16.0652334,45.8655909 16.2328221,46.4335455 L17.7888686,51.7226818 L19.3449151,46.4345 C19.5125038,45.8655909 20.016206,45.4847273 20.5976169,45.4847273 C21.1790277,45.4847273 21.6827299,45.8655909 21.8503186,46.4335455 L23.4063651,51.7226818 L24.9624116,46.4345 C25.1300003,45.8655909 25.6337025,45.4847273 26.2151134,45.4847273 C26.7965243,45.4847273 27.3002264,45.8655909 27.4678151,46.4335455 L28.3141846,49.3105455 C29.1549365,52.1694091 31.6884275,54.0909091 34.6151432,54.0909091 C38.2431097,54.0909091 41.1941678,51.0821818 41.1941678,47.3833182 L41.1941678,45.5 C41.1941678,44.9721364 41.6126713,44.5454545 42.1304172,44.5454545 C42.6481632,44.5454545 43.0666667,44.9721364 43.0666667,45.5 L43.0666667,47.3833182 C43.0666667,52.1350455 39.2748565,56 34.6151432,56 C30.853293,56 27.6007625,53.5325 26.5203307,49.8584545 L26.2151134,48.8208636 L24.6590668,54.11 C24.4914782,54.6789091 23.987776,55.0597727 23.4063651,55.0597727 C22.8249542,55.0597727 22.321252,54.6789091 22.1536634,54.1109545 L20.5976169,48.8218182 L19.0415703,54.11 C18.8739817,54.6789091 18.3702795,55.0597727 17.7888686,55.0597727 C17.2074577,55.0597727 16.7037555,54.6789091 16.5361669,54.1109545 L14.9801203,48.8218182 L13.4240738,54.11 C13.2564852,54.6789091 12.752783,55.0597727 12.1713721,55.0597727 C11.5899612,55.0597727 11.086259,54.6789091 10.9186704,54.1109545 L9.36262382,48.8218182 L7.80657728,54.11 C7.63898864,54.6789091 7.13528645,55.0597727 6.55387556,55.0597727 C5.97246467,55.0597727 5.46876248,54.6789091 5.30117384,54.1109545 L3.7451273,48.8218182 L1.83330599,55.3194091 C1.71159356,55.7327273 1.33990254,55.9990455 0.936379045,55.9990455 Z" id="Shape" fill="#38454F"></path>
                </g>
            </g>
        </g>
    </g>
</svg>