<?xml version="1.0" encoding="UTF-8" standalone="no"?>
<svg width="18px" height="18px" viewBox="0 0 18 18" version="1.1" xmlns="http://www.w3.org/2000/svg" xmlns:xlink="http://www.w3.org/1999/xlink">
    <!-- Generator: Sketch 46.1 (44463) - http://www.bohemiancoding.com/sketch -->
    <title>Page 1</title>
    <desc>Created with Sketch.</desc>
    <defs></defs>
    <g id="Application-Desktop" stroke="none" stroke-width="1" fill="none" fill-rule="evenodd">
        <g id="13.Gop_Y" transform="translate(-711.000000, -330.000000)" fill="#006BD7">
            <path d="M717.063158,330 C715.105252,330 713.605268,330.515619 712.563158,331.546875 C711.521047,332.578131 711,334.062489 711,336 L711,348 L718.578947,348 L718.578947,336 L714.031579,336 C714.031579,334.937496 714.268418,334.171878 714.742105,333.703125 C715.215793,333.234372 715.98947,333 717.063158,333 L717.063158,330 Z M727.484211,330 C725.526305,330 724.026322,330.515619 722.984211,331.546875 C721.942099,332.578131 721.421053,334.062489 721.421053,336 L721.421053,348 L729,348 L729,336 L724.452632,336 C724.452632,334.937496 724.689471,334.171878 725.163158,333.703125 C725.636845,333.234372 726.410522,333 727.484211,333 L727.484211,330 Z" id="Page-1"></path>
        </g>
    </g>
</svg>