<?xml version="1.0" encoding="UTF-8" standalone="no"?>
<svg width="121px" height="150px" viewBox="0 0 121 150" version="1.1" xmlns="http://www.w3.org/2000/svg" xmlns:xlink="http://www.w3.org/1999/xlink">
    <!-- Generator: Sketch 46.1 (44463) - http://www.bohemiancoding.com/sketch -->
    <title>test</title>
    <desc>Created with Sketch.</desc>
    <defs>
        <filter x="-16.8%" y="-10.0%" width="133.7%" height="126.2%" filterUnits="objectBoundingBox" id="filter-1">
            <feOffset dx="0" dy="4" in="SourceAlpha" result="shadowOffsetOuter1"></feOffset>
            <feGaussianBlur stdDeviation="5" in="shadowOffsetOuter1" result="shadowBlurOuter1"></feGaussianBlur>
            <feColorMatrix values="0 0 0 0 0   0 0 0 0 0   0 0 0 0 0  0 0 0 0.123075181 0" type="matrix" in="shadowBlurOuter1" result="shadowMatrixOuter1"></feColorMatrix>
            <feMerge>
                <feMergeNode in="shadowMatrixOuter1"></feMergeNode>
                <feMergeNode in="SourceGraphic"></feMergeNode>
            </feMerge>
        </filter>
    </defs>
    <g id="Application-Desktop" stroke="none" stroke-width="1" fill="none" fill-rule="evenodd">
        <g id="01.-Trang_Chu_Ver2" transform="translate(-316.000000, -715.000000)" fill-rule="nonzero">
            <g id="test" filter="url(#filter-1)" transform="translate(326.000000, 721.000000)">
                <path d="M90.9,10.15625 L10.1,10.15625 C4.5311125,10.15625 0,14.7125977 0,20.3125 L0,119.84375 C0,125.443652 4.5311125,130 10.1,130 L90.9,130 C96.4688875,130 101,125.443652 101,119.84375 L101,20.3125 C101,14.7125977 96.4688875,10.15625 90.9,10.15625 Z" id="Shape" fill="#D0533A"></path>
                <path d="M90.799,18.28125 C91.9703475,18.28125 92.92,19.2278125 92.92,20.3955273 L92.92,119.760977 C92.92,120.928691 91.9703475,121.875254 90.799,121.875254 L10.201,121.875254 C9.0296525,121.875254 8.08,120.928691 8.08,119.760977 L8.08,20.3952734 C8.08,19.2278125 9.0296525,18.28125 10.201,18.28125 L90.799,18.28125 Z" id="Shape" fill="#FFFFFF"></path>
                <path d="M36.36,54.84375 L24.24,54.84375 C22.01295,54.84375 20.2,53.0207031 20.2,50.78125 L20.2,38.59375 C20.2,36.3542969 22.01295,34.53125 24.24,34.53125 L36.36,34.53125 C38.58705,34.53125 40.4,36.3542969 40.4,38.59375 L40.4,50.78125 C40.4,53.0207031 38.58705,54.84375 36.36,54.84375 Z M24.24,38.59375 L24.24,50.78125 L36.36404,50.78125 L36.36,38.59375 L24.24,38.59375 Z" id="Shape" fill="#B4B6BC"></path>
                <path d="M52.52,40.625 L46.46,40.625 C45.343445,40.625 44.44,39.7165234 44.44,38.59375 C44.44,37.4709766 45.343445,36.5625 46.46,36.5625 L52.52,36.5625 C53.636555,36.5625 54.54,37.4709766 54.54,38.59375 C54.54,39.7165234 53.636555,40.625 52.52,40.625 Z" id="Shape" fill="#5C546A"></path>
                <path d="M76.76,48.75 L46.46,48.75 C45.343445,48.75 44.44,47.8415234 44.44,46.71875 C44.44,45.5959766 45.343445,44.6875 46.46,44.6875 L76.76,44.6875 C77.876555,44.6875 78.78,45.5959766 78.78,46.71875 C78.78,47.8415234 77.876555,48.75 76.76,48.75 Z" id="Shape" fill="#868491"></path>
                <path d="M66.66,69.0625 L46.46,69.0625 C45.343445,69.0625 44.44,68.1540234 44.44,67.03125 C44.44,65.9084766 45.343445,65 46.46,65 L66.66,65 C67.776555,65 68.68,65.9084766 68.68,67.03125 C68.68,68.1540234 67.776555,69.0625 66.66,69.0625 Z" id="Shape" fill="#5C546A"></path>
                <path d="M76.76,77.1875 L46.46,77.1875 C45.343445,77.1875 44.44,76.2790234 44.44,75.15625 C44.44,74.0334766 45.343445,73.125 46.46,73.125 L76.76,73.125 C77.876555,73.125 78.78,74.0334766 78.78,75.15625 C78.78,76.2790234 77.876555,77.1875 76.76,77.1875 Z" id="Shape" fill="#868491"></path>
                <path d="M54.54,95.46875 L46.46,95.46875 C45.343445,95.46875 44.44,94.5602734 44.44,93.4375 C44.44,92.3147266 45.343445,91.40625 46.46,91.40625 L54.54,91.40625 C55.656555,91.40625 56.56,92.3147266 56.56,93.4375 C56.56,94.5602734 55.656555,95.46875 54.54,95.46875 Z" id="Shape" fill="#5C546A"></path>
                <path d="M76.76,103.59375 L46.46,103.59375 C45.343445,103.59375 44.44,102.685273 44.44,101.5625 C44.44,100.439727 45.343445,99.53125 46.46,99.53125 L76.76,99.53125 C77.876555,99.53125 78.78,100.439727 78.78,101.5625 C78.78,102.685273 77.876555,103.59375 76.76,103.59375 Z" id="Shape" fill="#868491"></path>
                <path d="M58.58,10.15625 C57.463445,10.15625 56.56,9.24777344 56.56,8.125 L56.56,6.09375 C56.56,4.97300781 55.654535,4.0625 54.54,4.0625 L46.46,4.0625 C45.345465,4.0625 44.44,4.97300781 44.44,6.09375 L44.44,8.125 C44.44,9.24777344 43.536555,10.15625 42.42,10.15625 C41.303445,10.15625 40.4,9.24777344 40.4,8.125 L40.4,6.09375 C40.4,2.73355469 43.118415,0 46.46,0 L54.54,0 C57.881585,0 60.6,2.73355469 60.6,6.09375 L60.6,8.125 C60.6,9.24777344 59.696555,10.15625 58.58,10.15625 Z" id="Shape" fill="#D0533A"></path>
                <path d="M72.72,6.09375 L28.28,6.09375 C27.164455,6.09375 26.26,7.00324219 26.26,8.125 L26.26,14.21875 C26.26,19.827793 30.7820225,24.375 36.36,24.375 L64.64,24.375 C70.2179775,24.375 74.74,19.827793 74.74,14.21875 L74.74,8.125 C74.74,7.00324219 73.835545,6.09375 72.72,6.09375 Z" id="Shape" fill="#F95625"></path>
                <path d="M36.36,81.25 L24.24,81.25 C22.01295,81.25 20.2,79.4269531 20.2,77.1875 L20.2,65 C20.2,62.7605469 22.01295,60.9375 24.24,60.9375 L36.36,60.9375 C38.58705,60.9375 40.4,62.7605469 40.4,65 L40.4,77.1875 C40.4,79.4269531 38.58705,81.25 36.36,81.25 Z M24.24,65 L24.24,77.1875 L36.36404,77.1875 L36.36,65 L24.24,65 Z" id="Shape" fill="#B4B6BC"></path>
                <path d="M36.36,107.65625 L24.24,107.65625 C22.01295,107.65625 20.2,105.833203 20.2,103.59375 L20.2,91.40625 C20.2,89.1667969 22.01295,87.34375 24.24,87.34375 L36.36,87.34375 C38.58705,87.34375 40.4,89.1667969 40.4,91.40625 L40.4,103.59375 C40.4,105.833203 38.58705,107.65625 36.36,107.65625 Z M24.24,91.40625 L24.24,103.59375 L36.36404,103.59375 L36.36,91.40625 L24.24,91.40625 Z" id="Shape" fill="#B4B6BC"></path>
                <path d="M32.32,75.15625 C31.8031325,75.15625 31.286265,74.9579492 30.89186,74.5610937 L26.85186,70.4985937 C26.0627975,69.7051367 26.0627975,68.4196094 26.85186,67.6261523 C27.6409225,66.8326953 28.91933,66.8326953 29.7083925,67.6261523 L32.32,70.2525586 L40.99186,61.5324023 C41.7809225,60.7389453 43.05933,60.7389453 43.8483925,61.5324023 C44.637455,62.3258594 44.637455,63.6111328 43.8483925,64.4045898 L33.7483925,74.5608398 C33.353735,74.9579492 32.8368675,75.15625 32.32,75.15625 Z" id="Shape" fill="#FF4F19"></path>
            </g>
        </g>
    </g>
</svg>